<?xml version="1.0" encoding="utf-8"?>
<!-- Generator: Adobe Illustrator 15.0.0, SVG Export Plug-In . SVG Version: 6.00 Build 0)  -->
<!DOCTYPE svg PUBLIC "-//W3C//DTD SVG 1.0//EN" "http://www.w3.org/TR/2001/REC-SVG-20010904/DTD/svg10.dtd">
<svg version="1.0" id="Layer_1" xmlns="http://www.w3.org/2000/svg" xmlns:xlink="http://www.w3.org/1999/xlink" x="0px" y="0px"
	 width="40px" height="40px" viewBox="0 0 40 40" enable-background="new 0 0 40 40" xml:space="preserve">
<g id="boxes">
	<g>
		<g id="wooden">
			<path fill="#FFFFFF" d="M36.5,1.5h-33c-1.104,0-2,0.896-2,2v33c0,1.104,0.896,2,2,2h33c1.104,0,2-0.896,2-2v-33
				C38.5,2.396,37.604,1.5,36.5,1.5z"/>
			<path fill="#DFA400" d="M37,36c0,0.553-0.447,1-1,1H4c-0.552,0-1-0.447-1-1V4c0-0.552,0.448-1,1-1h32c0.553,0,1,0.448,1,1V36z"/>
			<g>
				<line fill="none" stroke="#000000" stroke-miterlimit="10" x1="1" y1="25.5" x2="39" y2="25.5"/>
				<line fill="none" stroke="#FFFFFF" stroke-miterlimit="10" x1="1" y1="26.5" x2="39" y2="26.5"/>
			</g>
			<g>
				<line fill="none" stroke="#000000" stroke-miterlimit="10" x1="1" y1="13.5" x2="39" y2="13.5"/>
				<line fill="none" stroke="#FFFFFF" stroke-miterlimit="10" x1="1" y1="14.5" x2="39" y2="14.5"/>
			</g>
			<g>
				<path fill="#FFFFFF" d="M38.5,8.882V3.5c0-1.104-0.896-2-2-2h-8.818L1.5,31.253V36.5c0,1.104,0.896,2,2,2h8.937L38.5,8.882z"/>
				<path fill="#DFA400" d="M38.5,5.857V3.5c0-1.104-0.896-2-2-2h-6.152L1.5,34.281V36.5c0,1.104,0.896,2,2,2h6.275L38.5,5.857z"/>
				<g>
					<polygon points="27.017,1.5 1.5,30.496 1.5,32.01 28.348,1.5 					"/>
					<polygon points="38.5,9.639 38.5,8.125 11.771,38.5 13.103,38.5 					"/>
				</g>
			</g>
		</g>
	</g>
	<g>
		<path id="SVGID_1_" fill="none" stroke="#000000" stroke-miterlimit="10" d="M38.5,36.5c0,1.104-0.896,2-2,2h-33
			c-1.104,0-2-0.896-2-2v-33c0-1.104,0.896-2,2-2h33c1.104,0,2,0.896,2,2V36.5z"/>
	</g>
</g>
</svg>
