<?xml version="1.0" encoding="utf-8"?>
<!-- Generator: Adobe Illustrator 15.0.0, SVG Export Plug-In . SVG Version: 6.00 Build 0)  -->
<!DOCTYPE svg PUBLIC "-//W3C//DTD SVG 1.0//EN" "http://www.w3.org/TR/2001/REC-SVG-20010904/DTD/svg10.dtd">
<svg version="1.0" id="Layer_1" xmlns="http://www.w3.org/2000/svg" xmlns:xlink="http://www.w3.org/1999/xlink" x="0px" y="0px"
	 width="40px" height="40px" viewBox="0 0 40 40" enable-background="new 0 0 40 40" xml:space="preserve">
<polygon fill="#FFFFFF" points="6,32 7,25 5,25 5,15 3.375,9.5 11.875,5.5 21,10.125 24.688,4.375 37,8.75 36,21 37.125,25.875 
	32.125,31.5 29.75,36 18,36 17.25,31.875 9.125,34.75 "/>
<polygon points="5,31 6,24 4,24 4,14 2.375,8.5 10.875,4.5 20,9.125 23.688,3.375 36,7.75 35,20 36.125,24.875 31.125,30.5 
	28.75,35 17,35 16.25,30.875 8.125,33.75 "/>
</svg>
