<?xml version="1.0" encoding="utf-8"?>
<!-- Generator: Adobe Illustrator 15.0.0, SVG Export Plug-In . SVG Version: 6.00 Build 0)  -->
<!DOCTYPE svg PUBLIC "-//W3C//DTD SVG 1.0//EN" "http://www.w3.org/TR/2001/REC-SVG-20010904/DTD/svg10.dtd">
<svg version="1.0" id="Layer_1" xmlns="http://www.w3.org/2000/svg" xmlns:xlink="http://www.w3.org/1999/xlink" x="0px" y="0px"
	 width="40px" height="40px" viewBox="0 0 40 40" enable-background="new 0 0 40 40" xml:space="preserve">
<rect fill="#565656" width="40" height="40"/>
<path opacity="0.4" fill="#FFFFFF" enable-background="new    " d="M36,10h4V9h-4V0H15v9H9H0v1h9v9H0v1h9h8v9H3H0v1h3v9H0v1h40v-1
	H24v-9h14h2v-1h-2v-9h2v-1h-2h-8v-9H36z M16,0h19v9h-5H16V0z M23,39H4v-9h13h6V39z M37,20v9H24h-6v-9h12H37z M29,19H17h-7v-9h5h14
	V19z"/>
<path opacity="0.3" enable-background="new    " d="M37,11h3v-1h-3V1h3V0H0v1h16v9h-6H0v1h10v9H0v1h10h8v9H4H0v1h4v9h21v-9h14h1v-1
	h-1v-9h1v-1h-1h-8v-9H37z M17,1h19v9h-5H17V1z M24,40H5v-9h13h6V40z M38,21v9H25h-6v-9h12H38z M30,20H18h-7v-9h5h14V20z"/>
</svg>
