<?xml version="1.0" encoding="utf-8"?>
<!-- Generator: Adobe Illustrator 15.0.0, SVG Export Plug-In . SVG Version: 6.00 Build 0)  -->
<!DOCTYPE svg PUBLIC "-//W3C//DTD SVG 1.0//EN" "http://www.w3.org/TR/2001/REC-SVG-20010904/DTD/svg10.dtd">
<svg version="1.0" id="Layer_1" xmlns="http://www.w3.org/2000/svg" xmlns:xlink="http://www.w3.org/1999/xlink" x="0px" y="0px"
	 width="40px" height="40px" viewBox="0 0 40 40" enable-background="new 0 0 40 40" xml:space="preserve">
<g id="boxes">
	<g>
		<defs>
			<path id="SVGID_1_" d="M38.5,36.5c0,1.1-0.9,2-2,2h-33c-1.1,0-2-0.9-2-2v-33c0-1.1,0.9-2,2-2h33c1.1,0,2,0.9,2,2V36.5z"/>
		</defs>
		<clipPath id="SVGID_2_">
			<use xlink:href="#SVGID_1_"  overflow="visible"/>
		</clipPath>
		<path clip-path="url(#SVGID_2_)" fill="#FFFFFF" d="M36.5,1.5h-33c-1.1,0-2,0.9-2,2v33c0,1.1,0.9,2,2,2h33c1.1,0,2-0.9,2-2v-33
			C38.5,2.4,37.6,1.5,36.5,1.5z"/>
		<g clip-path="url(#SVGID_2_)">
			<path fill="#808080" d="M4,37c-0.551,0-1-0.448-1-1V4c0-0.551,0.449-1,1-1h32c0.552,0,1,0.449,1,1v32c0,0.552-0.448,1-1,1H4z"/>
		</g>
		<g clip-path="url(#SVGID_2_)">
			<g>
				<path fill="none" stroke="#FFFFFF" stroke-width="6" stroke-miterlimit="10" d="M30.62,57.667"/>
			</g>
			<g>
				<path fill="none" stroke="#FFFFFF" stroke-width="6" stroke-miterlimit="10" d="M-2.038-12.333"/>
			</g>
			<g>
				<path fill="none" stroke="#FFFFFF" stroke-width="3" stroke-miterlimit="10" d="M48.038,57.667"/>
			</g>
			<g>
				<path fill="none" stroke="#FFFFFF" stroke-width="3" stroke-miterlimit="10" d="M15.38-12.333"/>
			</g>
			<g>
				<path fill="none" stroke="#FFFFFF" stroke-miterlimit="10" d="M32.798,71.667"/>
			</g>
			<g>
				<path fill="none" stroke="#FFFFFF" stroke-miterlimit="10" d="M0.14,1.667"/>
			</g>
		</g>
		<g clip-path="url(#SVGID_2_)">
			<g>
				<g>
					<path fill="#4D4D4D" d="M1,12.982V1h11.982L13,2.696c0.011,0.97-0.049,5.919-2.216,8.087C8.728,12.84,4.125,13,2.762,13
						L1,12.982z"/>
				</g>
				<g>
					<path fill="#FFFFFF" d="M1,11.99V1h10.991L12,1.907c0.006,0.597,0,5.889-2.102,7.991C7.897,11.899,2.942,12,1.968,12L1,11.99z"
						/>
				</g>
				<g>
					<path fill="#B3B3B3" d="M9,9c-2.062,2.062-8,2-8,2V1h10C11,1,11.062,6.938,9,9z"/>
				</g>
			</g>
			<g>
				<g>
					<path fill="#4D4D4D" d="M1,39V27.019C1,27.019,2.699,27,2.7,27c1.432,0,6.029,0.161,8.084,2.217
						c2.167,2.167,2.227,7.116,2.216,8.087L12.982,39H1z"/>
				</g>
				<g>
					<path fill="#FFFFFF" d="M1,39V28.01c0,0,0.91-0.01,0.911-0.01c1.042,0,5.988,0.104,7.987,2.102
						C12,32.205,12.006,37.496,12,38.094L11.991,39H1z"/>
				</g>
				<g>
					<path fill="#B3B3B3" d="M9,31c2.062,2.062,2,8,2,8H1V29C1,29,6.938,28.938,9,31z"/>
				</g>
			</g>
			<g>
				<g>
					<path fill="#4D4D4D" d="M27.019,39L27,37.304c-0.01-0.971,0.049-5.92,2.217-8.088C31.272,27.161,35.876,27,37.237,27h1.714
						L39,28.714V39H27.019z"/>
				</g>
				<g>
					<path fill="#FFFFFF" d="M28.01,39L28,38.093c-0.006-0.597-0.001-5.888,2.102-7.991C32.104,28.101,37.059,28,38.031,28h0.917
						L39,28.917V39H28.01z"/>
				</g>
				<g>
					<path fill="#B3B3B3" d="M31,31c2.062-2.062,8-2,8-2v10H29C29,39,28.938,33.062,31,31z"/>
				</g>
			</g>
			<g>
				<g>
					<path fill="#4D4D4D" d="M37.237,13c-1.361,0-5.965-0.16-8.021-2.216C27.049,8.616,26.99,3.667,27,2.696L27.019,1H39v11.982
						L37.237,13z"/>
				</g>
				<g>
					<path fill="#FFFFFF" d="M38.031,12c-0.974,0-5.93-0.101-7.93-2.102C27.999,7.796,27.994,2.503,28,1.907L28.01,1H39v10.991
						L38.031,12z"/>
				</g>
				<g>
					<path fill="#B3B3B3" d="M31,9c-2.062-2.062-2-8-2-8h10v10C39,11,33.062,11.062,31,9z"/>
				</g>
			</g>
			<g>
				<circle fill="#FFFFFF" cx="6.5" cy="6.5" r="1.5"/>
				<path d="M6.5,8.25c-0.965,0-1.75-0.785-1.75-1.75S5.535,4.75,6.5,4.75S8.25,5.535,8.25,6.5S7.465,8.25,6.5,8.25z M6.5,5.25
					c-0.689,0-1.25,0.561-1.25,1.25S5.811,7.75,6.5,7.75S7.75,7.189,7.75,6.5S7.189,5.25,6.5,5.25z"/>
			</g>
		</g>
		<g clip-path="url(#SVGID_2_)">
			<g>
				<circle fill="#FFFFFF" cx="6.5" cy="33.5" r="1.5"/>
				<path d="M6.5,35.25c-0.965,0-1.75-0.785-1.75-1.75s0.785-1.75,1.75-1.75s1.75,0.785,1.75,1.75S7.465,35.25,6.5,35.25z
					 M6.5,32.25c-0.689,0-1.25,0.561-1.25,1.25s0.561,1.25,1.25,1.25s1.25-0.561,1.25-1.25S7.189,32.25,6.5,32.25z"/>
			</g>
		</g>
		<g clip-path="url(#SVGID_2_)">
			<g>
				<circle fill="#FFFFFF" cx="33.5" cy="33.5" r="1.5"/>
				<path d="M33.5,35.25c-0.965,0-1.75-0.785-1.75-1.75s0.785-1.75,1.75-1.75s1.75,0.785,1.75,1.75S34.465,35.25,33.5,35.25z
					 M33.5,32.25c-0.689,0-1.25,0.561-1.25,1.25s0.561,1.25,1.25,1.25s1.25-0.561,1.25-1.25S34.189,32.25,33.5,32.25z"/>
			</g>
		</g>
		<g clip-path="url(#SVGID_2_)">
			<g>
				<circle fill="#FFFFFF" cx="33.5" cy="6.5" r="1.5"/>
				<path d="M33.5,8.25c-0.965,0-1.75-0.785-1.75-1.75s0.785-1.75,1.75-1.75s1.75,0.785,1.75,1.75S34.465,8.25,33.5,8.25z
					 M33.5,5.25c-0.689,0-1.25,0.561-1.25,1.25s0.561,1.25,1.25,1.25s1.25-0.561,1.25-1.25S34.189,5.25,33.5,5.25z"/>
			</g>
		</g>
	</g>
</g>
<g>
	<path d="M36.5,39h-33C2.122,39,1,37.879,1,36.5v-33C1,2.122,2.122,1,3.5,1h33C37.879,1,39,2.122,39,3.5v33
		C39,37.879,37.879,39,36.5,39z M3.5,2C2.673,2,2,2.673,2,3.5v33C2,37.327,2.673,38,3.5,38h33c0.827,0,1.5-0.673,1.5-1.5v-33
		C38,2.673,37.327,2,36.5,2H3.5z"/>
</g>
</svg>
