<?xml version="1.0" encoding="utf-8"?>
<!-- Generator: Adobe Illustrator 15.0.0, SVG Export Plug-In . SVG Version: 6.00 Build 0)  -->
<!DOCTYPE svg PUBLIC "-//W3C//DTD SVG 1.0//EN" "http://www.w3.org/TR/2001/REC-SVG-20010904/DTD/svg10.dtd">
<svg version="1.0" id="Layer_1" xmlns="http://www.w3.org/2000/svg" xmlns:xlink="http://www.w3.org/1999/xlink" x="0px" y="0px"
	 width="40px" height="40px" viewBox="0 0 40 40" enable-background="new 0 0 40 40" xml:space="preserve">
<circle cx="19.95" cy="20.05" r="17.55"/>
<g>
	<polygon fill="#999999" points="22.451,10.5 17.549,10.5 13.123,13.123 10.5,17.549 10.5,22.451 13.123,26.877 17.549,29.5 
		22.451,29.5 26.877,26.877 29.5,22.451 29.5,17.549 26.877,13.123 	"/>
	<polygon fill="#FFFFFF" points="21.084,10.5 17.549,10.5 15.976,11.432 24.254,28.432 26.877,26.877 28.075,24.855 	"/>
	<polygon fill="#FFFFFF" points="11.422,15.994 18,29.5 19.111,29.5 12.032,14.964 	"/>
</g>
<g>
	<polygon fill="#4D4D4D" points="23.178,9.769 24.96,3.746 31.716,7.576 27.163,12.13 	"/>
	<polygon fill="#FFFFFF" points="17.637,9.55 16.168,3.443 23.936,3.383 22.27,9.603 	"/>
	<polygon fill="#CCCCCC" points="8.403,7.578 15.1,3.642 16.768,9.862 12.729,12.132 	"/>
	<polygon fill="#FFFFFF" points="3.747,15.041 7.578,8.283 12.132,12.837 9.771,16.822 	"/>
	<polygon fill="#666666" points="3.384,16.064 9.605,17.73 9.553,22.361 3.445,23.831 	"/>
	<polygon fill="#FFFFFF" points="3.643,24.898 9.863,23.232 12.135,27.271 7.58,31.596 	"/>
	<polygon fill="#FFFFFF" points="3.643,24.898 9.863,23.232 12.135,27.271 7.58,31.596 	"/>
	<polygon fill="#E6E6E6" points="8.285,32.422 12.839,27.867 16.824,30.229 15.043,36.253 	"/>
	<polygon fill="#999999" points="17.732,30.395 22.364,30.445 23.834,36.555 16.066,36.616 	"/>
	<polygon fill="#FFFFFF" points="23.232,30.136 27.271,27.865 31.598,32.419 24.9,36.357 	"/>
	<polygon fill="#E6E6E6" points="27.869,27.161 30.23,23.176 36.255,24.957 32.424,31.715 	"/>
	<polygon fill="#808080" points="30.396,22.268 30.449,17.635 36.557,16.166 36.618,23.934 	"/>
	<polygon fill="#B3B3B3" points="27.867,12.728 32.421,8.402 36.359,15.098 30.139,16.766 	"/>
</g>
</svg>
