# Blender v2.56 (sub 0) OBJ File: 'diamond.blend'
# www.blender.org
mtllib diamond7.mtl
o Gem_Gem.001
v 0.962237 -2.018114 -1.847026
v 0.962237 -0.868114 -1.847026
v 0.962237 -1.618114 -2.242100
v 1.241596 -1.218114 -2.521459
v 0.962237 -1.043114 -2.485638
v 1.134444 -0.868114 -2.262772
v 1.241596 -1.618114 -2.126385
v 1.636669 -1.218114 -2.126385
v 1.413803 -1.043114 -2.298593
v 1.377983 -0.868114 -2.019234
v 1.357310 -1.618114 -1.847026
v 1.636669 -1.218114 -1.567667
v 1.600848 -1.043114 -1.847026
v 1.377983 -0.868114 -1.674819
v 1.241596 -1.618114 -1.567667
v 1.241596 -1.218114 -1.172594
v 1.413803 -1.043113 -1.395460
v 1.134444 -0.868114 -1.431280
v 0.962237 -1.618114 -1.451953
v 0.682878 -1.218114 -1.172594
v 0.962237 -1.043113 -1.208415
v 0.790029 -0.868114 -1.431280
v 0.682878 -1.618114 -1.567667
v 0.287805 -1.218114 -1.567667
v 0.510670 -1.043113 -1.395460
v 0.546491 -0.868114 -1.674819
v 0.567164 -1.618114 -1.847026
v 0.287805 -1.218114 -2.126385
v 0.323625 -1.043114 -1.847026
v 0.546491 -0.868114 -2.019234
v 0.682878 -1.618114 -2.126385
v 0.682878 -1.218114 -2.521459
v 0.510670 -1.043114 -2.298593
v 0.790029 -0.868114 -2.262772
vn 0.282683 -0.674051 -0.682456
vn 0.579720 -0.572580 -0.579720
vn 0.692743 0.200532 -0.692743
vn 0.298825 0.624695 -0.721429
vn 0.436698 0.786505 -0.436698
vn 0.682456 -0.674051 -0.282683
vn 0.819849 -0.572580 0.000000
vn 0.979687 0.200532 -0.000000
vn 0.721429 0.624695 -0.298826
vn 0.617584 0.786505 0.000000
vn 0.682456 -0.674051 0.282682
vn 0.579721 -0.572580 0.579721
vn 0.692743 0.200532 0.692743
vn 0.721429 0.624695 0.298826
vn 0.436698 0.786505 0.436698
vn 0.282682 -0.674050 0.682456
vn 0.000000 -0.572580 0.819849
vn 0.000000 0.200532 0.979687
vn 0.298825 0.624695 0.721429
vn -0.000000 0.786505 0.617584
vn -0.282682 -0.674050 0.682456
vn -0.579721 -0.572580 0.579721
vn -0.692744 0.200532 0.692743
vn -0.298825 0.624695 0.721429
vn -0.436698 0.786505 0.436698
vn -0.682456 -0.674051 0.282682
vn -0.819849 -0.572580 0.000000
vn -0.979687 0.200532 0.000000
vn -0.721429 0.624695 0.298825
vn -0.617584 0.786505 0.000000
vn -0.682456 -0.674051 -0.282683
vn -0.579720 -0.572580 -0.579720
vn -0.692743 0.200532 -0.692743
vn -0.721429 0.624695 -0.298826
vn -0.436698 0.786505 -0.436698
vn -0.282683 -0.674051 -0.682456
vn -0.000000 -0.572580 -0.819849
vn 0.000000 0.200532 -0.979687
vn -0.298825 0.624695 -0.721429
vn 0.000000 0.786505 -0.617584
vn 0.000000 1.000000 -0.000000
g Gem_Gem.001
usemtl (null)
s off
f 7//1 1//1 3//1 4//1
f 7//2 4//2 8//2
f 8//3 4//3 9//3
f 9//4 4//4 5//4 6//4
f 9//5 6//5 10//5
f 11//6 1//6 7//6 8//6
f 11//7 8//7 12//7
f 12//8 8//8 13//8
f 13//9 8//9 9//9 10//9
f 13//10 10//10 14//10
f 15//11 1//11 11//11 12//11
f 15//12 12//12 16//12
f 16//13 12//13 17//13
f 17//14 12//14 13//14 14//14
f 17//15 14//15 18//15
f 19//16 1//16 15//16 16//16
f 19//17 16//17 20//17
f 20//18 16//18 21//18
f 21//19 16//19 17//19 18//19
f 21//20 18//20 22//20
f 23//21 1//21 19//21 20//21
f 23//22 20//22 24//22
f 24//23 20//23 25//23
f 25//24 20//24 21//24 22//24
f 25//25 22//25 26//25
f 27//26 1//26 23//26 24//26
f 27//27 24//27 28//27
f 28//28 24//28 29//28
f 29//29 24//29 25//29 26//29
f 29//30 26//30 30//30
f 31//31 1//31 27//31 28//31
f 31//32 28//32 32//32
f 32//33 28//33 33//33
f 33//34 28//34 29//34 30//34
f 33//35 30//35 34//35
f 3//36 1//36 31//36 32//36
f 3//37 32//37 4//37
f 4//38 32//38 5//38
f 5//39 32//39 33//39 34//39
f 5//40 34//40 6//40
f 6//41 34//41 2//41
f 2//41 10//41 6//41
f 2//41 14//41 10//41
f 2//41 18//41 14//41
f 2//41 22//41 18//41
f 2//41 26//41 22//41
f 2//41 30//41 26//41
f 2//41 34//41 30//41
